PathFileType	4	(X/Y/Z)	/Users/itak/Documents/Research/Walk-IL/dataset/trc/00369_00011.trc
DataRate	CameraRate	NumFrames	NumMarkers	Units	OrigDataRate	OrigDataStartFrame	OrigNumFrames
100.000000	100.000000	4	54	mm	100.000000	270	541
Frame#	Time	RPSI			LPSI			L3			STRN			T10			C7			CLAV			RBAK			LBAK			LSHO			LUPA			LAEL			LAOL			LWTS			LWPS			LFRA			LIFD			LHPS			LHTS			RSHO			RUPA			RAEL			RAOL			RWTS			RWPS			RFRA			RIFD			RHTS			RHPS			RBHD			LFHD			RFHD			LBHD			LHIP			RHIP			RASI			LASI			LKNE			LTHI			LANK			LTIP			LTOE			LMT1			LMT5			LHEE			RKNE			RTHI			RANK			RTIP			RTOE			RMT1			RMT5			RHEE			*53			
		X1	Y1	Z1	X2	Y2	Z2	X3	Y3	Z3	X4	Y4	Z4	X5	Y5	Z5	X6	Y6	Z6	X7	Y7	Z7	X8	Y8	Z8	X9	Y9	Z9	X10	Y10	Z10	X11	Y11	Z11	X12	Y12	Z12	X13	Y13	Z13	X14	Y14	Z14	X15	Y15	Z15	X16	Y16	Z16	X17	Y17	Z17	X18	Y18	Z18	X19	Y19	Z19	X20	Y20	Z20	X21	Y21	Z21	X22	Y22	Z22	X23	Y23	Z23	X24	Y24	Z24	X25	Y25	Z25	X26	Y26	Z26	X27	Y27	Z27	X28	Y28	Z28	X29	Y29	Z29	X30	Y30	Z30	X31	Y31	Z31	X32	Y32	Z32	X33	Y33	Z33	X34	Y34	Z34	X35	Y35	Z35	X36	Y36	Z36	X37	Y37	Z37	X38	Y38	Z38	X39	Y39	Z39	X40	Y40	Z40	X41	Y41	Z41	X42	Y42	Z42	X43	Y43	Z43	X44	Y44	Z44	X45	Y45	Z45	X46	Y46	Z46	X47	Y47	Z47	X48	Y48	Z48	X49	Y49	Z49	X50	Y50	Z50	X51	Y51	Z51	X52	Y52	Z52	X53	Y53	Z53	X54	Y54	Z54	

271	2.7	-715.8904418945312	963.820068359375	-43.35186004638672	-649.7896118164062	969.8666381835938	-155.9089508056641	-686.3506469726562	1026.446166992188	-91.94492340087891	-486.1834411621094	1207.204956054688	35.23213958740234	-691.3115844726562	1147.947143554688	-98.26248931884766	-641.4951782226562	1395.19580078125	-77.16828918457031	-518.8038330078125	1333.832275390625	14.25152397155762	-719.5387573242188	1255.744750976562	-52.33600616455078	-594.291015625	1361.930786132812	-167.6900177001953	-492.8739624023438	1377.803833007812	-165.3271331787109	-478.3283386230469	1264.255981445312	-242.6840972900391	-471.0514221191406	1062.7001953125	-271.58056640625	-553.0906372070312	1050.6923828125	-251.0657196044922	-415.2710571289062	810.1472778320312	-216.8849182128906	-423.4731140136719	807.5401000976562	-285.6565856933594	-458.1023559570312	958.361572265625	-284.2718505859375	-418.8790893554688	646.4033203125	-231.047607421875	-431.5491943359375	737.7702026367188	-290.6436157226562	-400.9116516113281	731.965087890625	-234.1274566650391	-688.674560546875	1380.499389648438	86.86488342285156	-735.8529052734375	1317.975952148438	130.5254669189453	-770.6044921875	1054.10205078125	172.7434539794922	-744.285888671875	1041.302734375	83.44071960449219	-579.3152465820312	897.5038452148438	229.5304107666016	-633.744384765625	859.5914916992188	268.4201354980469	-738.52587890625	996.1945190429688	203.6742248535156	-499.158203125	749.9868774414062	279.5885009765625	-522.5123901367188	819.3603515625	275.8096313476562	-585.8803100585938	792.7810668945312	288.7401123046875	-641.7633666992188	1597.220336914062	28.17146682739258	-434.3745727539062	1593.427490234375	46.34678268432617	-506.2086791992188	1591.0771484375	117.9334106445312	-560.913330078125	1599.463256835938	-91.00395202636719	-519.6956176757812	920.6624145507812	-202.3873748779297	-700.5880126953125	901.9854736328125	87.56497192382812	-588.6051025390625	929.4284057617188	106.8394088745117	-451.494873046875	943.3230590820312	-86.85419464111328	-347.4379577636719	491.0732116699219	-124.2348098754883	-381.2712097167969	621.2334594726562	-147.5166320800781	-367.4596252441406	60.17724227905273	-197.7079620361328	-347.748291015625	272.5348205566406	-171.6647186279297	-215.0629730224609	73.78935241699219	-49.418212890625	-293.1588134765625	49.21139526367188	-45.1788330078125	-251.9907989501953	67.38825225830078	-150.0128021240234	-428.8082580566406	47.14017868041992	-155.0982055664062	-625.5537109375	437.0612182617188	33.638427734375	-623.5957641601562	690.231689453125	102.4100952148438	-713.1915893554688	50.26605987548828	-91.71603393554688	-619.5618896484375	317.4968872070312	-0.5532787442207336	-514.4072265625	43.88388442993164	-71.66513824462891	-550.3685913085938	40.33202743530273	-131.0952301025391	-627.203369140625	38.07932281494141	-38.97195816040039	-741.872802734375	55.60134506225586	-154.5020294189453	nan	nan	nan	
272	2.71	-708.1937255859375	963.0324096679688	-42.41811752319336	-640.3491821289062	968.9337158203125	-153.9065246582031	-678.2657470703125	1025.213012695312	-90.44934844970703	-479.8022155761719	1205.840942382812	39.0969352722168	-683.9234619140625	1146.712280273438	-96.85594940185547	-633.817626953125	1393.9404296875	-74.85897064208984	-512.2157592773438	1332.36474609375	17.75917053222656	-712.3458862304688	1254.549926757812	-50.85346603393555	-585.815673828125	1360.626831054688	-164.9559478759766	-484.3640441894531	1376.397094726562	-161.5470581054688	-469.2896118164062	1262.80712890625	-238.7239685058594	-462.4581604003906	1061.254028320312	-267.5191955566406	-544.7432861328125	1049.474731445312	-247.5861663818359	-407.9909057617188	808.327880859375	-212.9103088378906	-415.677490234375	805.97216796875	-281.7681274414062	-449.7927856445312	956.9246215820312	-280.2842407226562	-412.4169921875	644.6107788085938	-227.6006927490234	-424.0471801757812	736.2443237304688	-287.020263671875	-393.9210205078125	730.1380615234375	-230.2951812744141	-682.6155395507812	1379.243774414062	88.69293212890625	-730.047119140625	1316.714233398438	132.0544281005859	-764.665283203125	1053.125610351562	176.08935546875	-738.0676879882812	1039.768188476562	86.95365905761719	-572.0982055664062	898.4262084960938	233.9393463134766	-625.7543334960938	860.2735595703125	273.4690551757812	-732.0827026367188	995.6348876953125	207.4782562255859	-490.8618469238281	751.8515014648438	285.2142944335938	-514.6427001953125	821.1026611328125	280.753662109375	-577.7716674804688	794.06201171875	293.9470825195312	-634.87060546875	1595.924438476562	30.6593189239502	-427.63671875	1592.038330078125	50.24071884155273	-500.0386962890625	1589.6748046875	121.4012145996094	-553.2380981445312	1598.078369140625	-87.96071624755859	-509.8604431152344	919.1357421875	-198.6023101806641	-694.9332885742188	901.2658081054688	88.73236846923828	-583.1329956054688	928.4614868164062	109.7395706176758	-443.2974243164062	941.6976318359375	-82.10164642333984	-340.2429504394531	488.2198181152344	-119.6558456420898	-375.1743774414062	618.4149169921875	-143.7347564697266	-336.8079833984375	56.17352676391602	-180.7520751953125	-328.8788452148438	270.0917053222656	-161.177001953125	-190.9480895996094	81.00095367431641	-27.46959686279297	-268.0295715332031	53.42950057983398	-25.62516975402832	-223.5903625488281	69.95968627929688	-129.2135467529297	-399.260986328125	41.77014541625977	-140.0527191162109	-622.9453125	436.2730102539062	35.24729156494141	-619.5399169921875	689.328369140625	104.1314239501953	-713.076416015625	50.45042037963867	-91.7645263671875	-617.6229248046875	316.6204833984375	0.5296739339828491	-514.3956909179688	43.83355331420898	-71.61979675292969	-550.3981323242188	40.39391708374023	-130.9164733886719	-627.191650390625	38.08152770996094	-38.91948318481445	-741.8375244140625	55.98238372802734	-154.5728759765625	nan	nan	nan	
273	2.72	-700.3880615234375	962.12939453125	-41.40164947509766	-630.8275146484375	967.8141479492188	-151.8106536865234	-670.0673828125	1023.815795898438	-88.86324310302734	-473.3860168457031	1204.325317382812	43.00266265869141	-676.397216796875	1145.310913085938	-95.44162750244141	-626.0385131835938	1392.502563476562	-72.55865478515625	-505.5254821777344	1330.772094726562	21.25761032104492	-705.0576171875	1253.169555664062	-49.39894485473633	-577.234130859375	1359.135375976562	-162.2076263427734	-475.7490844726562	1374.813598632812	-157.7241363525391	-460.1791687011719	1261.154418945312	-234.6954193115234	-453.7904052734375	1059.600708007812	-263.3556518554688	-536.3054809570312	1048.05810546875	-243.9782257080078	-400.6128540039062	806.3115234375	-208.76611328125	-407.7938232421875	804.192626953125	-277.7018737792969	-441.3900451660156	955.275146484375	-276.1643371582031	-405.9244689941406	642.6234741210938	-223.9457397460938	-416.5017395019531	734.4971313476562	-283.2114562988281	-386.8469848632812	728.08251953125	-226.2597351074219	-676.5355834960938	1377.842041015625	90.46468353271484	-724.2339477539062	1315.313842773438	133.5105285644531	-758.6806640625	1052.015625	179.3796844482422	-731.8576049804688	1038.114135742188	90.37617492675781	-565.1298217773438	898.9400024414062	238.2524566650391	-618.168701171875	860.6493530273438	278.3600158691406	-725.7294921875	994.9131469726562	211.1846313476562	-483.1297912597656	753.1377563476562	290.6802062988281	-507.2002868652344	822.2864990234375	285.5418090820312	-570.1387329101562	794.9337768554688	299.0382080078125	-627.9280395507812	1594.506469726562	33.14080429077148	-420.8727111816406	1590.501098632812	54.16785430908203	-493.856201171875	1588.114135742188	124.9215698242188	-545.4960327148438	1596.57666015625	-84.89914703369141	-499.9459533691406	917.33837890625	-194.6780853271484	-689.1873168945312	900.4918823242188	89.98522186279297	-577.6129150390625	927.4202270507812	112.6879653930664	-435.0505065917969	939.8743286132812	-77.25559997558594	-332.8602294921875	485.2319946289062	-115.3292694091797	-369.1973876953125	615.2381591796875	-140.3634643554688	-307.5833129882812	53.33441543579102	-162.8627777099609	-310.6891784667969	268.1837463378906	-150.4518890380859	-168.6751098632812	88.88326263427734	-5.263138294219971	-244.7100067138672	58.68007659912109	-5.56449031829834	-196.8605804443359	73.31896209716797	-107.8276672363281	-371.1125793457031	37.84137725830078	-124.0325775146484	-620.2845458984375	435.397705078125	37.00252914428711	-615.4996948242188	688.3362426757812	106.0064010620117	-712.9591674804688	50.64764022827148	-91.83804321289062	-615.6697387695312	315.6832885742188	1.709295868873596	-514.3802490234375	43.78247451782227	-71.55834197998047	-550.427978515625	40.43744659423828	-130.71240234375	-627.176513671875	38.08673095703125	-38.86423873901367	-741.775146484375	56.38504409790039	-154.6606750488281	nan	nan	nan	
274	2.73	-692.4808349609375	961.1045532226562	-40.2967643737793	-621.262451171875	966.5034790039062	-149.6347503662109	-661.7840576171875	1022.2587890625	-87.19594573974609	-466.9222412109375	1202.6708984375	46.94986724853516	-668.6760864257812	1143.76123046875	-93.99594879150391	-618.1589965820312	1390.895629882812	-70.26593017578125	-498.7157897949219	1329.082641601562	24.74860763549805	-697.6710205078125	1251.616577148438	-47.96900939941406	-568.534423828125	1357.468627929688	-159.4381561279297	-467.0245361328125	1373.059814453125	-153.8598480224609	-450.9880676269531	1259.307983398438	-230.6026763916016	-445.0404968261719	1057.745971679688	-259.1106262207031	-527.757568359375	1046.444580078125	-240.2545166015625	-393.1044616699219	804.1192016601562	-204.4541320800781	-399.8094787597656	802.2044677734375	-273.4565124511719	-432.8838500976562	953.4168701171875	-271.9237976074219	-399.3733215332031	640.4639892578125	-220.0604858398438	-408.9132690429688	732.5361328125	-279.2076110839844	-379.682861328125	725.7919921875	-222.0037689208984	-670.426513671875	1376.304931640625	92.18888092041016	-718.4104614257812	1313.782104492188	134.8970947265625	-752.6386108398438	1050.77001953125	182.6019744873047	-725.6497802734375	1036.346801757812	93.69145965576172	-558.4119262695312	899.042236328125	242.4747314453125	-611.03271484375	860.7113037109375	283.0602416992188	-719.4767456054688	994.0269775390625	214.7732238769531	-475.9342041015625	753.8475341796875	295.9691162109375	-500.189697265625	822.8980712890625	290.202392578125	-562.9795532226562	795.3859252929688	304.0065612792969	-620.9368896484375	1592.984497070312	35.61281585693359	-414.0810241699219	1588.832885742188	58.12931823730469	-487.6504211425781	1586.417602539062	128.4816436767578	-537.680908203125	1594.975708007812	-81.81951904296875	-489.9651794433594	915.2891235351562	-190.6333312988281	-683.3463745117188	899.6500244140625	91.32305145263672	-572.0258178710938	926.3036499023438	115.6869583129883	-426.7725524902344	937.8768920898438	-72.33078765869141	-325.2330627441406	482.2282104492188	-111.182487487793	-363.1445922851562	611.8169555664062	-137.3287963867188	-280.1521911621094	51.51767349243164	-144.3123321533203	-293.3187866210938	266.7671813964844	-139.5874633789062	-148.2657470703125	97.22238159179688	16.77117156982422	-223.2807922363281	64.77347564697266	14.6751537322998	-171.9991607666016	77.24649047851562	-86.21892547607422	-344.7006225585938	35.25807952880859	-107.2337799072266	-617.5626220703125	434.4303894042969	38.88452911376953	-611.4478759765625	687.2515258789062	108.0243301391602	-712.8345336914062	50.85509490966797	-91.93977355957031	-613.7053833007812	314.6891784667969	2.97620153427124	-514.353759765625	43.72737121582031	-71.47840881347656	-550.4599609375	40.45912933349609	-130.4901123046875	-627.153564453125	38.09706115722656	-38.80840301513672	-741.6767578125	56.81838226318359	-154.7687683105469	nan	nan	nan	
